<!-- icon666.com - MILLIONS vector ICONS FREE --><svg version="1.1" id="Capa_1" xmlns="http://www.w3.org/2000/svg" xmlns:xlink="http://www.w3.org/1999/xlink" x="0px" y="0px" viewBox="0 0 486.912 486.912" style="enable-background:new 0 0 486.912 486.912;" xml:space="preserve"><g><g><g><path d="M385.1,272.64c-32.2-12.3-51.5-24.9-51.5-24.9l-23.7,75l2.1,2.1l9,9l30.2,30.2l21.2-21.2l9-9l3.7-3.7l28.9-28.9 C409.6,287.84,401.2,278.54,385.1,272.64z"></path></g><g><path d="M287.5,268.04L287.5,268.04C287.4,268.04,287.4,268.04,287.5,268.04c-0.1,0-0.1,0-0.2,0c0,0,0,0-0.1,0h-0.1l0,0 c-4.8,0-32.3,1.7-6.7,37.4l-3.7,10.4c3.6-1.5,7.5-2.3,11.5-2.3c3.2,0,6.3,0.5,9.3,1.5l-3.4-9.6 C319.7,269.74,292.2,268.04,287.5,268.04z"></path></g><g><path d="M265.2,324.24l-24.2-76.4c0,0-19.3,12.6-51.5,24.9c-5.8,2.1-10.5,4.6-14.5,7.6c-16-7.4-25.1-13.3-25.1-13.3l-20.9,66.2 l-2.9,9l-9.4-26.6c21.5-30-1.6-31.5-5.6-31.5l0,0c0,0,0,0-0.1,0c0,0,0,0-0.1,0c0,0,0,0-0.1,0c0,0,0,0-0.1,0l0,0 c-4,0-27.2,1.5-5.6,31.5l-9.4,26.6l-2.9-9l-20.9-66.2c0,0-16.3,10.6-43.4,21c-29.8,10.8-27.9,35.4-28.5,81.5h110.9h0.3h44.4H220 l2-2l42.7-42.7L265.2,324.24z"></path></g><g><path d="M481.3,273.44c-0.2,0-0.5,0-0.7,0c-14.9,0.7-29.8,1.4-44.7,2.1c-2.3,0.1-4.6,0.2-5.9,3s0.2,4.3,1.8,5.9 c4.6,4.6,9.1,9.2,13.7,13.7l-5.1,5.1l-41.2,41.2l-3.7,3.7l-9,9l-35.5,35.5l-2.1-2.1l-42.4-42.4l-9-9l-2.4-2.4 c-1.9-1.9-4.4-2.9-6.9-2.9s-5,1-6.9,2.9l-2.4,2.4l-51.4,51.4c-3.8,3.8-3.8,10.1,0,13.9l2.4,2.4c1.9,1.9,4.4,2.9,6.9,2.9 s5-1,6.9-2.9l44.5-44.5l2.1,2.1l42.4,42.4l9,9l2.4,2.4c1.9,1.9,4.4,2.9,6.9,2.9s5-1,6.9-2.9l2.4-2.4l42.4-42.4l9-9l3.7-3.7 l41.2-41.2l5-5c3.5,3.5,9.9,9.9,13.4,13.4c1.3,1.3,2.5,2.6,4.2,2.6c0.7,0,1.4-0.2,2.2-0.6c2.7-1.5,3.3-3.8,3.4-6.5 c0.6-14.5,1.4-29,2-43.6C487.4,275.44,485.6,273.44,481.3,273.44z"></path></g><g><path d="M382,235.24c4.8,2.3,10,3.5,15.2,4.4c4.1,0.7,4.2,0.8,4.3,5.1c0,1.9,0,3.9,0.1,5.8c0,2.4,1.2,3.9,3.7,3.9 c2.9,0.1,5.7,0.1,8.6,0c2.3-0.1,3.5-1.3,3.5-3.7c0-2.6,0.1-5.3,0-7.9c-0.1-2.7,1-4.1,3.6-4.8c6-1.6,11-4.8,15-9.6 c10.8-13.2,6.7-32.5-8.7-41c-4.8-2.7-10-4.7-15-6.8c-2.9-1.2-5.8-2.6-8.2-4.6c-4.9-3.9-4-10.2,1.8-12.8c1.6-0.7,3.3-0.9,5.1-1 c6.7-0.4,13,0.9,19,3.8c3,1.4,4,1,5-2.1c1.1-3.3,2-6.6,2.9-10c0.7-2.2-0.1-3.7-2.3-4.7c-3.8-1.7-7.8-2.9-12-3.6 c-5.4-0.9-5.4-0.9-5.5-6.3c0-7.7,0-7.7-7.7-7.7c-1.1,0-2.2,0-3.4,0c-3.6,0.1-4.2,0.7-4.3,4.4c0,1.6,0,3.3,0,4.9 c0,4.8-0.1,4.8-4.7,6.4c-11.2,4.1-18.1,11.7-18.8,23.9c-0.7,10.8,5,18.1,13.8,23.4c5.5,3.3,11.5,5.2,17.3,7.8 c2.3,1,4.4,2.1,6.3,3.7c5.6,4.6,4.5,12.2-2.1,15.1c-3.5,1.5-7.3,1.9-11.1,1.5c-5.9-0.7-11.6-2.3-16.9-5.1c-3.1-1.6-4-1.2-5.1,2.2 c-0.9,2.9-1.7,5.9-2.5,8.8C377.9,232.44,378.3,233.44,382,235.24z"></path></g><g><path d="M232.4,196.84c2.8,18.3,16.9,41.6,40.1,49.7c9.5,3.4,20,3.4,29.4-0.1c22.8-8.2,37.4-31.4,40.2-49.7 c3.1-0.2,7.1-4.6,11.5-19.9c6-21.1-0.4-24.2-5.7-23.7c1-2.9,1.8-5.8,2.3-8.7c9.1-54.5-17.8-56.4-17.8-56.4s-4.4-8.6-16.2-15 c-7.9-4.7-18.8-8.3-33.2-7c-4.7,0.2-9.1,1.1-13.2,2.5l0,0c-5.3,1.8-10.2,4.4-14.5,7.5c-5.4,3.4-10.5,7.6-15,12.4 c-7.1,7.3-13.4,16.7-16.2,28.4c-2.3,8.8-1.8,17.9,0.1,27.7l0,0c0.5,2.9,1.3,5.8,2.3,8.7c-5.4-0.5-11.7,2.6-5.7,23.7 C225.3,192.24,229.3,196.54,232.4,196.84z"></path></g><g><path d="M64.9,224.94c2.4,15.5,14.3,35.2,34,42.1c8.1,2.8,16.9,2.8,24.9,0c19.3-7,31.7-26.6,34.1-42.1c2.6-0.2,6-3.9,9.7-16.9 c5-17.8-0.3-20.5-4.8-20c0.9-2.5,1.5-4.9,2-7.3c7.7-46.1-15-47.8-15-47.8s-3.8-7.2-13.7-12.7c-6.6-3.9-15.9-7-28.1-5.9 c-4,0.2-7.7,1-11.2,2.1l0,0c-4.5,1.5-8.6,3.7-12.3,6.3c-4.6,2.9-8.9,6.4-12.7,10.5c-6,6.1-11.4,14.1-13.7,24 c-1.9,7.4-1.5,15.2,0.1,23.5l0,0c0.4,2.4,1.1,4.9,2,7.3c-4.5-0.4-9.9,2.2-4.8,20C58.8,221.04,62.3,224.64,64.9,224.94z"></path></g></g></g></svg>