<!-- icon666.com - MILLIONS vector ICONS FREE --><svg version="1.1" id="Capa_1" xmlns="http://www.w3.org/2000/svg" xmlns:xlink="http://www.w3.org/1999/xlink" x="0px" y="0px" viewBox="0 0 512 512" style="enable-background:new 0 0 512 512;" xml:space="preserve"><g><g><path d="M477.874,356.716c-0.029-0.257-0.058-0.513-0.102-0.77c-2.192-12.63-6.138-24.824-11.727-36.245 c-1.82-3.722-6.31-5.262-10.033-3.44c-3.72,1.821-5.261,6.313-3.439,10.033c4.604,9.408,7.942,19.414,9.959,29.772H227.704 c10.929-56.126,59.91-96.604,117.415-96.604c34.449,0,67.204,14.758,89.868,40.492c2.737,3.108,7.477,3.409,10.585,0.671 c3.108-2.738,3.409-7.477,0.671-10.585c-25.51-28.966-62.368-45.578-101.124-45.578c-12.888,0-25.392,1.814-37.258,5.208 l5.13-55.825h19.475c6.893,0,12.5-5.607,12.5-12.5V143.67c0-6.893-5.607-12.5-12.5-12.5h-26.993V97.94 c0-6.893-5.608-12.5-12.5-12.5h-84.392V15.828C208.581,7.101,201.48,0,192.753,0h-76.379c-8.728,0-15.828,7.101-15.828,15.828 v13.326c0,8.727,7.101,15.827,15.828,15.827h47.227V85.44H77.564c-6.893,0-12.5,5.607-12.5,12.5v33.23h-26.99 c-6.893,0-12.5,5.607-12.5,12.5v37.675c0,6.893,5.607,12.5,12.5,12.5h18.55l28.154,306.362C85.386,506.82,91.064,512,97.705,512 H406.4c18.814,0,36.585-7.242,50.038-20.393c13.422-13.122,21.068-30.677,21.532-49.438c0.009-0.372-0.009-0.742-0.03-1.111 c5.074-3.067,8.485-8.622,8.485-14.971v-20.124c0-2.909-0.719-5.651-1.982-8.065c1.248-1.944,1.982-4.25,1.982-6.728v-22.603 h0.001C486.426,363.055,482.836,358.374,477.874,356.716z M116.374,29.981c-0.441,0-0.828-0.387-0.828-0.827V15.828 c0-0.441,0.387-0.828,0.828-0.828h76.379c0.441,0,0.828,0.387,0.828,0.828V85.44h-14.98V37.481c0-4.142-3.358-7.5-7.5-7.5H116.374 z M40.574,178.845V146.17H231c4.142,0,7.5-3.358,7.5-7.5c0-4.142-3.358-7.5-7.5-7.5H80.064v-30.73h210.408v30.73H267 c-4.143,0-7.5,3.358-7.5,7.5c0,4.142,3.357,7.5,7.5,7.5h62.966v32.675H40.574z M85.911,348.627l59.181-64.559 c2.799-3.053,2.593-7.797-0.461-10.597c-3.052-2.798-7.796-2.593-10.597,0.461l-49.977,54.519l-12.37-134.606h135.762 l-44.997,49.087c-2.799,3.053-2.593,7.797,0.461,10.597c1.44,1.32,3.255,1.971,5.066,1.971c2.029,0,4.051-0.818,5.531-2.432 l54.288-59.223h70.129l-0.952,10.365L93.081,426.636L85.911,348.627z M99.547,497.001V497l-4.612-50.189l199.773-217.93 l-2.416,26.296c-40.952,17.397-71.8,54.546-79.823,100.765c-0.045,0.258-0.073,0.517-0.103,0.775 c-4.961,1.658-8.551,6.339-8.551,11.851v22.602c0,2.478,0.733,4.783,1.982,6.728c-1.263,2.414-1.982,5.156-1.982,8.065v20.124 c0,6.349,3.41,11.902,8.484,14.97c-0.021,0.372-0.039,0.744-0.029,1.118c0.46,18.752,8.107,36.308,21.532,49.433 c1.976,1.932,4.056,3.72,6.208,5.393H99.547z M445.953,480.881C435.318,491.275,421.273,497,406.4,497H283.835 c-14.869,0-28.915-5.725-39.547-16.119c-10.186-9.958-16.153-23.145-16.939-37.295h235.543 C462.103,457.737,456.137,470.925,445.953,480.881z M471.425,426.086c0,1.355-1.145,2.5-2.5,2.5h-0.607 c-1.375-0.445-2.816-0.687-4.276-0.687H226.199c-1.46,0-2.903,0.242-4.278,0.688h-0.606c-1.355,0-2.5-1.145-2.5-2.5v-20.124 c0-1.011,0.638-1.904,1.525-2.293h157.435c1.048,0,3.435,0.832,4.256,1.483l14.427,11.444c2.362,1.874,5.409,2.906,8.578,2.906 s6.216-1.032,8.578-2.906l14.428-11.445c0.821-0.651,3.208-1.483,4.256-1.483H469.9c0.888,0.389,1.525,1.282,1.525,2.293V426.086z M471.426,388.669h-39.128c-4.411,0-10.122,1.99-13.578,4.731l-13.684,10.855l-13.682-10.854 c-3.456-2.742-9.167-4.732-13.578-4.732h-158.96v-17.602h252.61V388.669z"></path></g></g><g><g><path d="M371.12,280.009h-5.225c-4.142,0-7.5,3.358-7.5,7.5c0,4.142,3.358,7.5,7.5,7.5h5.225c4.143,0,7.5-3.358,7.5-7.5 C378.62,283.367,375.263,280.009,371.12,280.009z"></path></g></g><g><g><path d="M295.065,298.319h-5.227c-4.143,0-7.5,3.358-7.5,7.5c0,4.142,3.357,7.5,7.5,7.5h5.227c4.143,0,7.5-3.358,7.5-7.5 C302.565,301.677,299.207,298.319,295.065,298.319z"></path></g></g><g><g><path d="M403.924,298.319h-5.223c-4.143,0-7.5,3.358-7.5,7.5c0,4.142,3.357,7.5,7.5,7.5h5.223c4.143,0,7.5-3.358,7.5-7.5 C411.424,301.677,408.067,298.319,403.924,298.319z"></path></g></g><g><g><path d="M346.357,303.952h-5.222c-4.143,0-7.5,3.358-7.5,7.5c0,4.142,3.357,7.5,7.5,7.5h5.222c4.143,0,7.5-3.358,7.5-7.5 C353.857,307.31,350.5,303.952,346.357,303.952z"></path></g></g><g><g><path d="M325.05,275.079h-5.228c-4.143,0-7.5,3.358-7.5,7.5c0,4.142,3.357,7.5,7.5,7.5h5.228c4.143,0,7.5-3.358,7.5-7.5 C332.55,278.437,329.193,275.079,325.05,275.079z"></path></g></g></svg>