<?xml version="1.0" encoding="UTF-8" standalone="no"?>
<svg
   version="1.0"
   width="45.000000pt"
   height="47.000000pt"
   viewBox="0 0 45.000000 47.000000"
   preserveAspectRatio="xMidYMid meet"
   id="svg6"
   sodipodi:docname="logo1.svg"
   xml:space="preserve"
   inkscape:version="1.3.2 (091e20e, 2023-11-25, custom)"
   xmlns:inkscape="http://www.inkscape.org/namespaces/inkscape"
   xmlns:sodipodi="http://sodipodi.sourceforge.net/DTD/sodipodi-0.dtd"
   xmlns="http://www.w3.org/2000/svg"
   xmlns:svg="http://www.w3.org/2000/svg"><defs
     id="defs6" /><sodipodi:namedview
     id="namedview6"
     pagecolor="#ffffff"
     bordercolor="#000000"
     borderopacity="0.25"
     inkscape:showpageshadow="2"
     inkscape:pageopacity="0.0"
     inkscape:pagecheckerboard="0"
     inkscape:deskcolor="#d1d1d1"
     inkscape:document-units="pt"
     inkscape:zoom="9.1735821"
     inkscape:cx="42.622391"
     inkscape:cy="28.178742"
     inkscape:window-width="1920"
     inkscape:window-height="1009"
     inkscape:window-x="-8"
     inkscape:window-y="-8"
     inkscape:window-maximized="1"
     inkscape:current-layer="svg6" /><g
     transform="translate(0.000000,47.000000) scale(0.100000,-0.100000)"
     fill="#000000"
     stroke="none"
     id="g6"><path
       d="M 0,235 V 0 H 225 450 V 235 470 H 225 0 Z m 264,210 c 4,-12 -5,-15 -54,-15 -59,0 -90,15 -48,23 53,10 96,7 102,-8 z m 41,-13 c -3,-3 -11,0 -18,7 -9,10 -8,11 6,5 10,-3 15,-9 12,-12 z m -97,-20 c 65,-4 74,-7 93,-33 11,-16 47,-45 81,-66 l 60,-37 -5,-53 C 428,141 402,107 332,87 301,78 258,60 238,46 206,25 196,23 165,31 128,41 127,44 95,133 86,159 62,204 44,232 1,295 4,319 62,385 c 29,32 45,44 57,39 9,-3 49,-9 89,-12 z m 171,-43 c 29,-28 50,-53 47,-56 -12,-12 -129,84 -120,99 10,15 21,8 73,-43 z M 58,167 C 76,131 90,95 90,85 90,68 89,68 69,86 39,113 10,174 10,210 c 0,42 11,32 48,-43 z M 326,53 C 293,36 240,19 240,26 c 0,8 83,44 100,43 8,0 2,-7 -14,-16 z"
       id="path1"
       inkscape:label="path1"
       style="display:inline" /><path
       d="m 150,308 v -32 l 21,21 c 22,22 19,43 -7,43 -9,0 -14,-11 -14,-32 z"
       id="path2"
       style="display:inline" /><path
       d="m 183,290 c -31,-28 -45,-70 -23,-70 6,0 27,15 48,34 33,31 35,37 22,50 -13,13 -19,12 -47,-14 z"
       id="path3"
       style="display:inline" /><path
       d="m 220,252 c -19,-20 -44,-42 -55,-48 -18,-11 -17,-12 18,-22 50,-14 64,-8 87,41 15,30 17,44 9,54 -16,18 -19,17 -59,-25 z"
       id="path4"
       style="display:inline" /><path
       d="m 290,240 c -6,-12 -9,-24 -7,-27 9,-8 48,18 44,30 -6,20 -25,19 -37,-3 z"
       id="path5"
       style="display:inline" /><path
       d="m 150,155 c 0,-8 6,-15 14,-15 7,0 19,7 26,15 11,13 8,15 -14,15 -16,0 -26,-5 -26,-15 z"
       id="path6"
       style="display:inline" /></g><path
     style="fill:#ffe200;fill-opacity:1;stroke:#000000;stroke-width:0.143625"
     d="M 23.817958,58.897217 C 22.8388,58.715202 21.662436,58.413205 20.580566,58.066112 17.416198,57.050899 16.691818,55.924283 13.452999,46.98073 12.141257,43.358535 11.716694,42.344875 10.436896,39.779655 8.8231883,36.54515 7.2397718,33.762279 5.4412263,30.999714 2.8911325,27.08277 2.0251378,24.943939 2.0323487,22.580481 c 0.00445,-1.459486 0.3323504,-2.665905 1.1720676,-4.312338 1.2502688,-2.451402 4.2452418,-6.2006 7.4816247,-9.3657257 1.423064,-1.3917318 2.241732,-2.0408792 3.142299,-2.4916272 0.808377,-0.4046057 1.270497,-0.4644031 1.9792,-0.2561044 2.053518,0.6035601 7.819757,1.3333174 13.791476,1.7454062 4.3516,0.3002897 6.374255,0.6956601 7.777649,1.520304 0.729561,0.4286954 1.611963,1.2948111 2.449768,2.4045561 1.720519,2.278974 5.11697,5.201248 9.229767,7.941207 0.831443,0.553909 3.374826,2.151758 5.65196,3.550774 4.071683,2.501542 4.140269,2.547752 4.141627,2.790411 0.0022,0.390102 -0.67562,7.369133 -0.806992,8.30922 -1.118649,8.004967 -3.693013,12.204032 -9.096506,14.837381 -1.338755,0.652432 -2.087215,0.944098 -3.854038,1.501876 -4.677959,1.476811 -7.462751,2.556431 -10.459383,4.054937 -1.214419,0.607287 -1.762361,0.924565 -3.183914,1.8436 -1.707032,1.103598 -2.857289,1.717064 -3.836341,2.046034 -0.810454,0.272319 -0.934319,0.292413 -1.944716,0.315477 -0.810051,0.01849 -1.271331,-0.0111 -1.849939,-0.118652 z M 23.17731,43.65158 c 1.837367,-0.883966 3.469539,-2.804845 2.855475,-3.360565 -0.233185,-0.21103 -0.82992,-0.289586 -2.240852,-0.294992 -1.88421,-0.0072 -2.757691,0.217392 -3.380072,0.869173 -0.324812,0.340155 -0.423845,0.620802 -0.422285,1.196687 0.0022,0.804499 0.423221,1.480292 1.128845,1.811856 0.512842,0.240977 1.264912,0.159828 2.058889,-0.222159 z m 7.282084,-4.454607 c 0.976506,-0.184615 1.786591,-0.63184 2.574498,-1.421307 0.9107,-0.912503 1.607941,-2.0043 2.735883,-4.284071 1.7285,-3.493606 2.243645,-5.124389 2.032631,-6.434663 -0.114226,-0.709279 -0.347137,-1.126447 -1.021257,-1.82918 -0.645825,-0.673238 -1.209567,-1.02439 -1.64456,-1.02439 -0.398407,0 -1.021404,0.274325 -1.606454,0.707373 -0.296761,0.219659 -2.013735,1.877843 -3.815498,3.684853 -4.173727,4.185882 -5.775258,5.597435 -7.785158,6.861661 -1.137145,0.715263 -1.464534,1.008964 -1.464534,1.313831 0,0.434708 0.648809,0.724347 3.364537,1.501982 3.366808,0.964069 5.123001,1.208803 6.629912,0.923911 z m 8.851799,-4.871217 c 1.504517,-0.473233 3.631699,-2.072114 4.155666,-3.123576 0.239954,-0.481528 0.249716,-0.771573 0.04413,-1.31122 -0.229761,-0.603101 -0.608006,-1.069571 -1.07187,-1.321882 -1.286394,-0.699711 -2.876531,0.235896 -3.92067,2.30685 -0.550915,1.09269 -1.000738,2.766072 -0.873068,3.247898 0.107711,0.406502 0.76292,0.485926 1.665812,0.20193 z M 22.103672,33.118623 c 1.582385,-0.774189 4.619066,-3.213119 7.111272,-5.711466 2.881131,-2.888229 3.096497,-3.674805 1.455486,-5.315817 -0.803893,-0.803893 -1.253918,-1.04829 -1.930289,-1.04829 -0.773459,0 -1.663928,0.520572 -3.226406,1.886169 -1.798266,1.571675 -3.005634,2.893425 -3.90955,4.279927 -1.557518,2.389054 -2.1362,4.660162 -1.437453,5.641461 0.387054,0.543569 1.156202,0.649996 1.93694,0.268016 z m -0.31741,-8.973072 c 2.03167,-2.053279 2.598185,-2.82003 2.890272,-3.911849 0.245983,-0.919484 0.09934,-1.607407 -0.462354,-2.169016 -0.491756,-0.491679 -1.147009,-0.723771 -2.091999,-0.740992 -1.15127,-0.02098 -1.629268,0.49404 -1.976956,2.130074 -0.126067,0.593205 -0.15668,1.150781 -0.196235,3.574112 -0.02985,1.828856 -0.01982,2.871259 0.02764,2.871259 0.04098,0 0.855313,-0.789114 1.809636,-1.753588 z"
     id="path7"
     transform="scale(0.75)" /><path
     style="fill:#ffe200;fill-opacity:1;stroke:#000000;stroke-width:0.143625"
     d="M 11.054476,52.680256 C 10.472816,52.288828 9.2880857,51.241131 8.4760221,50.400044 5.2967317,47.107121 2.3379166,41.182702 1.5301534,36.492368 1.356039,35.48136 1.3540435,33.193402 1.5265829,32.398499 c 0.2370169,-1.091957 0.5554883,-1.228491 1.2486582,-0.535321 0.8969586,0.896959 2.1553879,3.067307 4.4973435,7.756338 2.3038487,4.612734 3.6661944,7.808198 4.4528564,10.444445 0.173302,0.580768 0.207497,0.844339 0.210007,1.618696 0.0044,1.352282 -0.129175,1.50352 -0.880972,0.997599 z"
     id="path8"
     transform="scale(0.75)" /><path
     style="fill:#ffe200;fill-opacity:1;stroke:#000000;stroke-width:0.143625"
     d="M 25.783518,5.2416048 C 22.077871,5.0243602 19.296265,4.329809 19.106679,3.5744356 c -0.135924,-0.5415643 0.95218,-1.0016228 3.335284,-1.4101825 2.17275,-0.3724965 3.90996,-0.5506472 5.84668,-0.599576 3.104229,-0.078425 5.07635,0.2530196 6.230562,1.0471385 0.42136,0.2899037 0.652934,0.6470851 0.715508,1.1036071 0.119192,0.8696079 -0.557301,1.2299449 -2.711438,1.4442597 -1.086822,0.1081277 -5.398745,0.1605396 -6.739757,0.081922 z"
     id="path9"
     transform="scale(0.75)" /><path
     style="fill:#ffe200;fill-opacity:1;stroke:#000000;stroke-width:0.143625"
     d="M 39.442829,4.929004 C 38.737624,4.5766088 37.576876,3.4480828 37.576876,3.1148495 c 0,-0.1583898 0.06625,-0.1437841 1.101419,0.2428109 1.106924,0.4133941 1.488294,0.6226746 1.817078,0.9971391 0.27575,0.3140615 0.303099,0.499015 0.100854,0.6820444 C 40.383134,5.2296905 39.966626,5.190748 39.442829,4.929004 Z"
     id="path10"
     transform="scale(0.75)" /><path
     style="fill:#ffe200;fill-opacity:1;stroke:#000000;stroke-width:0.143625"
     d="M 55.564468,20.822579 C 52.034773,19.593862 42.499746,11.655978 41.001163,8.6986683 40.726303,8.1562581 40.736004,7.8676189 41.04208,7.481166 c 1.032741,-1.3039414 2.399928,-0.6423369 6.439054,3.115965 2.83891,2.641531 6.430474,6.305323 7.859812,8.017875 0.640678,0.767624 1.429042,1.931299 1.429042,2.109356 0,0.374591 -0.33353,0.401765 -1.20552,0.09822 z"
     id="path11"
     transform="scale(0.75)" /><path
     style="fill:#ffe200;fill-opacity:1;stroke:#000000;stroke-width:0.143625"
     d="m 32.068089,59.279139 c -0.439744,-0.71152 8.166545,-4.706385 12.060652,-5.59831 1.131959,-0.25927 1.618696,-0.245915 1.618696,0.04441 0,0.206482 -0.828659,0.932975 -1.636011,1.434306 -1.86403,1.157483 -6.864489,3.153682 -9.733402,3.885604 -1.048076,0.267387 -2.216165,0.38571 -2.309935,0.233988 z"
     id="path12"
     transform="scale(0.75)" /></svg>
