<!-- icon666.com - MILLIONS vector ICONS FREE --><svg version="1.1" id="Capa_1" xmlns="http://www.w3.org/2000/svg" xmlns:xlink="http://www.w3.org/1999/xlink" x="0px" y="0px" viewBox="0 0 409.648 409.648" style="enable-background:new 0 0 409.648 409.648;" xml:space="preserve"><g><g><path d="M390.502,180.972c-36.654-36.644-116.367-18.831-174.09,38.892c-25.339,25.339-44.006,60.36-51.215,96.082 c-6.907,34.227-2.304,63.391,12.319,78.008c10.117,10.117,27.238,15.421,48.215,15.421c9.257,0,19.267-1.029,29.752-3.139 c35.763-7.199,70.799-25.851,96.123-51.174c26.655-26.65,46.428-60.477,54.262-92.795 C414.162,228.04,408.704,199.174,390.502,180.972z M383.258,188.207c8.96,8.96,14.121,21.258,15.59,35.85l-51.318-51.318 C361.825,174.178,374.231,179.18,383.258,188.207z M184.755,386.714c-7.788-7.793-12.032-21.632-12.401-38.671l50.842,50.847 C206.152,398.475,192.317,394.277,184.755,386.714z M237.22,398.429l-64.358-64.364c0.476-5.192,1.26-10.578,2.376-16.097 c0.22-1.096,0.548-2.181,0.794-3.272l80.712,80.712C250.03,396.872,243.482,397.881,237.22,398.429z M344.361,347.818 c-22.497,22.497-49.997,37.023-76.093,44.641l-89.283-89.283c8.448-28.513,24.228-55.639,44.662-76.073 c23.613-23.608,51.543-40.264,78.1-48.64l91.315,91.315C384.323,297.237,366.991,325.192,344.361,347.818z M396.201,258.428 l-83.062-83.062c6.723-1.536,13.302-2.534,19.63-2.908l66.396,66.391C398.771,245.075,397.773,251.623,396.201,258.428z"></path></g></g><g><g><path d="M324.46,254.25l12.109-12.109c1.997-1.997,1.997-5.238,0-7.24c-2.002-2.002-5.238-2.002-7.24,0L317.22,247.01 l-11.213-11.213c-2.002-2.002-5.238-2.002-7.24,0c-2.002,2.002-2.002,5.238,0,7.24l11.213,11.213l-9.365,9.364l-11.213-11.213 c-2.002-2.002-5.238-2.002-7.24,0c-2.002,2.002-2.002,5.238,0,7.24l11.213,11.213l-9.364,9.365l-11.213-11.213 c-2.002-2.002-5.238-2.002-7.24,0c-2.002,2.002-2.002,5.238,0,7.24l11.213,11.213l-9.365,9.365l-11.213-11.213 c-2.002-2.002-5.238-2.002-7.24,0c-2.002,2.002-2.002,5.238,0,7.24l11.213,11.213l-9.365,9.365l-11.213-11.213 c-2.002-2.002-5.238-2.002-7.24,0s-2.002,5.238,0,7.24l11.213,11.213L231.45,332.78c-2.002,2.002-2.002,5.238,0,7.24 c0.998,0.998,2.309,1.5,3.62,1.5s2.621-0.502,3.62-1.5l12.114-12.114l11.213,11.213c0.998,0.998,2.309,1.5,3.62,1.5 s2.621-0.502,3.62-1.5c2.002-2.002,2.002-5.238,0-7.24l-11.213-11.213l9.365-9.365l11.213,11.213c0.998,0.998,2.309,1.5,3.62,1.5 s2.621-0.502,3.62-1.5c2.002-2.002,2.002-5.238,0-7.24l-11.213-11.213l9.365-9.365l11.208,11.213c0.998,0.998,2.309,1.5,3.62,1.5 s2.621-0.502,3.62-1.5c2.002-2.002,2.002-5.238,0-7.24l-11.208-11.213l9.365-9.364l11.208,11.213c0.998,0.998,2.309,1.5,3.62,1.5 s2.621-0.502,3.62-1.5c2.002-2.002,2.002-5.238,0-7.24l-11.208-11.213l9.365-9.365l11.213,11.208c0.998,0.998,2.309,1.5,3.62,1.5 s2.621-0.502,3.62-1.5c2.002-2.002,2.002-5.238,0-7.24L324.46,254.25z"></path></g></g><g><g><path d="M324.987,12.396c-36.25,0-65.741,29.491-65.741,65.741c0,36.25,29.491,65.741,65.741,65.741 c36.25,0,65.736-29.491,65.736-65.741C390.723,41.887,361.236,12.396,324.987,12.396z M324.987,22.636 c12.995,0,24.929,4.521,34.396,12.027c-9.697,7.977-21.796,12.396-34.427,12.396c-12.621,0-24.704-4.403-34.401-12.37 C300.027,27.167,311.977,22.636,324.987,22.636z M324.992,133.638c-12.646,0-24.279-4.296-33.623-11.443 c9.554-7.542,21.32-11.689,33.587-11.689c12.278,0,24.059,4.157,33.618,11.715C349.235,129.352,337.618,133.638,324.992,133.638z M366.157,115.221c-11.576-9.631-26.066-14.961-41.206-14.961c-15.125,0-29.599,5.32-41.17,14.93 c-8.858-9.836-14.3-22.805-14.3-37.053c0-13.896,5.166-26.578,13.635-36.321c11.674,9.969,26.419,15.483,41.83,15.483 c15.427,0,30.188-5.53,41.866-15.514c8.484,9.748,13.66,22.446,13.66,36.352C380.483,92.401,375.03,105.381,366.157,115.221z"></path></g></g><g><g><path d="M125.45,274.182c-25.631-25.636-67.338-25.626-92.969,0c-12.416,12.416-19.256,28.923-19.256,46.484 s6.835,34.068,19.256,46.484c12.416,12.421,28.923,19.256,46.485,19.256c17.556,0,34.068-6.835,46.484-19.256 c12.416-12.416,19.256-28.918,19.256-46.484C144.707,303.105,137.866,286.598,125.45,274.182z M118.211,281.422 c8.955,8.955,14.438,20.439,15.857,32.835c-12.518-1.208-24.202-6.646-33.147-15.585c-8.924-8.924-14.356-20.582-15.58-33.07 C97.357,266.978,109.015,272.226,118.211,281.422z M39.721,359.916c-8.719-8.719-14.121-19.845-15.708-31.867 c12.099,1.413,23.368,6.805,32.046,15.483c8.694,8.694,14.08,19.973,15.488,32.087C59.54,374.022,48.43,368.625,39.721,359.916z M118.211,359.911c-9.795,9.8-22.62,15.411-36.352,16.113c-1.372-15.002-7.849-29.025-18.56-39.736 c-10.696-10.696-24.704-17.178-39.685-18.555c0.712-13.722,6.328-26.527,16.113-36.316c9.825-9.825,22.446-15.135,35.328-16.041 c1.208,15.304,7.731,29.629,18.632,40.53c10.916,10.916,25.267,17.444,40.596,18.637 C133.361,337.91,127.77,350.352,118.211,359.911z"></path></g></g><g><g><path d="M206.592,35.661c-47.186-47.186-123.96-47.186-171.146,0C12.59,58.517,0,88.904,0,121.232 c0,32.328,12.59,62.72,35.446,85.576c22.856,22.861,53.248,35.451,85.576,35.451c32.323,0,62.72-12.59,85.571-35.451 c22.856-22.856,35.446-53.243,35.446-85.576C242.038,88.91,229.448,58.517,206.592,35.661z M231.419,113.404 c-28.841,2.371-55.854,14.244-77.107,33.884l-26.056-26.056l74.537-74.537C219.699,65.214,229.683,88.469,231.419,113.404z M128.85,10.876c24.1,1.695,47.677,11.238,66.698,28.585l-74.527,74.532L94.966,87.937 C114.601,66.694,126.469,39.701,128.85,10.876z M118.6,10.625c-2.289,26.189-13.092,50.708-30.874,70.077L46.49,39.466 C66.934,20.824,92.652,11.188,118.6,10.625z M39.245,46.7l41.242,41.242c-19.384,17.792-43.919,28.6-70.129,30.879 C10.936,91.854,21.12,66.55,39.245,46.7z M10.619,129.071c28.836-2.371,55.849-14.244,77.102-33.884l26.061,26.051l-74.537,74.537 C22.339,177.26,12.355,154.005,10.619,129.071z M113.188,231.635c-24.934-1.736-48.189-11.715-66.703-28.626l74.537-74.537 l26.056,26.056C127.432,175.781,115.553,202.794,113.188,231.635z M123.433,231.896c2.284-26.204,13.087-50.744,30.879-70.129 l41.242,41.242C175.703,221.139,150.395,231.322,123.433,231.896z M202.798,195.769l-41.242-41.242 c19.384-17.792,43.919-28.6,70.129-30.879C231.107,150.616,220.923,175.919,202.798,195.769z"></path></g></g></svg>